# xmcd
#
# Track frame offsets:
#	150
#	13001
#	28164
#	37404
#	44132
#	63291
#	74492
#	85442
#	106202
#	124719
#	137264
#	142178
#	160144
#	165464
#	176275
#	180844
#	187435
#
# Disc length: 2770 seconds
#
# Revision: 1
# Processed by: cddbd v1.5.2PL0 Copyright (c) Steve Scherf et al.
# Submitted via: audiograbber 1.83.01
#
DISCID=f50ad011
DTITLE=Ras Kass - Freestyles '05 Vol. 1
DYEAR=2005
DGENRE=Hip-Hop
TTITLE0=Ras Kass - The Difference
TTITLE1=Ras Kass - Dream
TTITLE2=Ras Kass - Kaution
TTITLE3=Ras Kass - Passion Of Kris
TTITLE4=Ras Kass, Scipio, Planet Asia - Round Here
TTITLE5=Ras Kass - Runnin and Gunnin
TTITLE6=Ras Kass - Touch Down
TTITLE7=Ras Kass - FucQup
TTITLE8=Ras Kass, Amerie - One Thing Rmx
TTITLE9=Ras Kass - The Real
TTITLE10=Ras Kass - Articulate Thugs
TTITLE11=Ras Kass - 66Sicks
TTITLE12=Ras Kass - Whoa!
TTITLE13=Ras Kass - Live from C Arson
TTITLE14=Ras Kass - Get Drunk
TTITLE15=Ras Kass - Hard Knock Spit
TTITLE16=Ras Kass, Canibus - Akhenaten Mic Rockin
EXTD=www.RapMusicGuide.com\n
EXTT0=
EXTT1=
EXTT2=
EXTT3=
EXTT4=
EXTT5=
EXTT6=
EXTT7=
EXTT8=
EXTT9=
EXTT10=
EXTT11=
EXTT12=
EXTT13=
EXTT14=
EXTT15=
EXTT16=
PLAYORDER=
